<mxfile host="app.diagrams.net" modified="2023-03-27T16:33:15.705Z" agent="Mozilla/5.0 (Windows NT 10.0; Win64; x64) AppleWebKit/537.36 (KHTML, like Gecko) Chrome/111.0.0.0 Safari/537.36 Edg/111.0.1661.54" version="21.1.1" etag="D3-V0IANPTABb39U-tfk" type="github">
  <diagram name="Page-1" id="Q-XRWsiwN8Mfl3gQAWnw">
    <mxGraphModel>
      <root>
        <mxCell id="0" />
        <mxCell id="1" parent="0" />
      </root>
    </mxGraphModel>
  </diagram>
</mxfile>
